<?xml version="1.0" standalone="no"?>
<!DOCTYPE svg PUBLIC "-//W3C//DTD SVG 20010904//EN"
 "http://www.w3.org/TR/2001/REC-SVG-20010904/DTD/svg10.dtd">
<svg version="1.0" xmlns="http://www.w3.org/2000/svg"
 width="639.000000pt" height="639.000000pt" viewBox="0 0 639.000000 639.000000"
 preserveAspectRatio="xMidYMid meet">
<metadata>
Created by potrace 1.14, written by Peter Selinger 2001-2017
</metadata>
<g transform="translate(0.000000,639.000000) scale(0.100000,-0.100000)"
fill="#000000" stroke="none">
<path d="M3902 6162 c-15 -15 -38 -50 -51 -77 -12 -28 -27 -59 -33 -71 -15
-32 -66 -59 -83 -44 -8 7 -15 18 -15 24 0 7 -5 17 -12 24 -7 7 -13 28 -14 48
0 20 -5 39 -11 42 -5 4 -12 15 -16 25 -8 23 -72 50 -98 42 -44 -14 -136 -129
-159 -199 -18 -56 -37 -53 -51 10 -10 46 -19 60 -53 84 -22 17 -49 30 -61 30
-23 0 -92 -63 -138 -128 -18 -24 -48 -52 -68 -63 l-36 -18 -24 25 c-13 14 -23
34 -21 44 3 17 -57 122 -77 134 -14 9 -41 -4 -41 -20 0 -8 -3 -14 -7 -14 -5 0
-21 -26 -37 -59 -24 -50 -87 -127 -140 -168 -15 -13 -45 -19 -33 -7 4 4 -2 19
-13 34 -11 15 -29 47 -40 71 -50 108 -63 124 -101 127 -31 3 -40 -2 -58 -27
-23 -31 -75 -142 -73 -152 0 -3 -10 -12 -23 -19 -21 -11 -29 -8 -83 30 -50 34
-71 43 -120 47 -57 5 -62 4 -87 -23 l-27 -29 7 -135 c4 -74 10 -139 14 -145 4
-5 9 -61 10 -124 2 -86 7 -125 21 -155 11 -23 25 -67 33 -98 15 -59 16 -86 21
-503 l2 -250 -25 -27 c-14 -16 -30 -28 -35 -28 -15 0 -86 -109 -86 -131 0 -10
4 -20 9 -24 6 -3 13 -27 17 -53 3 -26 13 -54 20 -63 12 -13 9 -20 -22 -50 -69
-66 -79 -93 -79 -204 0 -85 4 -107 24 -150 13 -27 23 -54 22 -58 -1 -5 3 -6 8
-3 5 3 20 -13 34 -36 26 -45 128 -121 179 -133 40 -10 54 -31 30 -44 -29 -16
-33 -59 -10 -106 26 -51 77 -105 100 -105 10 0 18 -4 18 -10 0 -5 17 -14 39
-21 l38 -11 -2 -88 c-4 -111 -27 -159 -125 -261 -66 -69 -71 -76 -65 -107 3
-19 11 -44 16 -56 15 -32 170 -104 249 -116 119 -18 131 -21 125 -30 -3 -5
-16 -6 -28 -1 -15 5 -35 1 -64 -14 -24 -12 -40 -24 -37 -28 3 -3 -2 -17 -11
-31 -17 -25 -17 -26 1 -20 17 5 17 4 -1 -7 -11 -8 -23 -14 -27 -15 -5 -1 -11
-2 -14 -3 -4 0 -1 -8 6 -16 11 -13 11 -18 0 -28 -9 -8 -11 -8 -7 -1 8 13 -12
23 -31 17 -10 -4 -8 -9 5 -19 17 -12 16 -13 -10 -14 -16 0 -26 -4 -22 -10 3
-6 1 -10 -5 -10 -7 0 -10 -7 -6 -15 3 -9 -3 -19 -15 -26 -16 -8 -18 -13 -8
-25 9 -11 8 -14 -5 -14 -9 0 -16 -6 -16 -13 0 -7 -9 -20 -20 -30 -22 -18 -28
-53 -7 -41 6 4 -2 -6 -20 -23 -29 -27 -31 -31 -17 -45 14 -14 13 -15 -13 -11
l-28 4 30 -15 30 -15 -28 4 c-33 5 -59 -3 -51 -16 3 -5 0 -9 -6 -9 -6 0 -9 -4
-6 -9 3 -5 -1 -12 -10 -15 -10 -4 -14 -14 -11 -25 2 -11 -3 -23 -15 -30 -11
-7 -18 -15 -15 -18 3 -2 -4 -14 -14 -24 -13 -13 -19 -30 -17 -47 2 -22 -1 -27
-17 -25 -36 4 -47 -4 -35 -27 8 -16 8 -20 -4 -20 -17 0 -32 -33 -17 -38 6 -2
11 -8 11 -13 0 -6 -5 -7 -11 -4 -15 10 -48 -24 -44 -45 3 -13 -5 -22 -26 -29
-26 -9 -29 -14 -23 -33 3 -13 12 -26 18 -30 7 -5 5 -8 -6 -8 -9 0 -29 -5 -43
-12 -21 -9 -25 -17 -20 -35 3 -15 -1 -29 -15 -43 -11 -11 -18 -26 -14 -31 4
-6 2 -14 -4 -18 -6 -3 -12 -13 -14 -21 -2 -8 -11 -23 -21 -35 -10 -11 -16 -28
-13 -41 3 -11 -1 -30 -9 -41 -8 -12 -12 -28 -9 -37 8 -20 -5 -20 -34 0 -19 13
-31 13 -83 3 -37 -7 -65 -19 -72 -29 -9 -15 -16 -16 -40 -8 -42 15 -157 -19
-157 -47 0 -7 -8 -20 -19 -29 -22 -20 -35 -104 -19 -124 8 -9 0 -23 -31 -54
-28 -29 -41 -51 -41 -69 0 -15 -5 -31 -11 -35 -6 -4 -9 -20 -5 -38 9 -49 69
-163 92 -176 16 -9 21 -20 19 -44 -2 -17 -4 -31 -5 -31 -1 0 -3 -9 -5 -20 -2
-11 -9 -21 -15 -23 -23 -8 -70 -55 -70 -70 0 -10 -12 -31 -27 -47 -16 -16 -27
-33 -26 -37 4 -11 -15 -10 -37 2 -13 7 -21 6 -30 -5 -7 -8 -9 -15 -4 -15 4 0
-2 -10 -14 -23 -12 -13 -19 -27 -15 -30 3 -4 0 -7 -7 -7 -7 0 -10 -3 -7 -6 3
-4 2 -15 -4 -25 -7 -14 -6 -19 3 -19 18 0 50 -38 43 -50 -8 -12 42 -33 72 -31
13 0 22 -4 20 -12 -3 -16 131 -23 147 -7 5 5 18 10 28 10 10 0 27 9 39 21 20
20 20 22 3 40 -11 12 -13 19 -5 19 7 0 10 4 6 9 -3 5 -1 13 5 16 8 5 7 11 -1
21 -9 11 -8 21 4 46 9 18 14 35 12 39 -3 3 7 12 20 19 14 7 25 18 25 24 0 18
79 96 85 86 4 -6 19 -10 35 -10 21 0 30 -6 35 -22 4 -13 16 -43 28 -68 13 -28
21 -67 22 -105 l1 -60 99 -1 c59 0 121 5 150 14 28 7 63 14 79 13 61 -1 64 6
58 136 -4 108 -8 123 -37 180 -28 54 -32 70 -30 135 1 40 5 108 10 150 6 61 5
85 -8 116 -9 22 -13 42 -10 46 4 3 0 6 -8 6 -23 1 -63 36 -50 44 6 4 11 19 11
34 0 16 8 32 20 40 11 7 20 19 20 27 0 8 6 15 13 15 7 0 28 17 47 38 82 91
135 154 136 163 1 5 2 14 3 20 0 5 6 7 12 4 12 -8 49 23 49 42 0 7 3 12 8 11
4 -1 18 4 31 11 17 9 20 16 12 24 -8 8 -2 19 22 40 17 15 26 26 20 22 -7 -3
-13 -2 -13 4 0 5 16 15 35 22 19 7 35 18 35 24 0 7 11 18 25 25 13 7 22 17 19
22 -8 13 16 39 30 31 6 -3 8 -3 4 2 -4 4 -3 14 3 22 6 7 8 13 5 13 -4 0 -1 6
7 14 8 8 32 16 53 18 32 2 40 7 42 26 2 12 9 22 17 22 16 0 27 50 11 50 -6 0
9 9 33 20 55 25 77 52 53 62 -11 5 -7 7 13 5 19 -1 37 6 52 20 12 13 30 23 39
23 10 0 14 5 10 15 -4 10 1 15 15 15 15 0 19 5 15 15 -6 17 28 40 45 29 7 -4
9 3 7 17 -2 18 2 24 17 24 11 1 19 6 18 13 -2 7 0 11 5 11 22 -4 34 3 28 16
-3 10 1 15 12 15 16 1 16 1 0 14 -18 13 -25 32 -9 22 13 -9 42 4 35 16 -3 5 2
25 11 44 18 39 37 42 107 19 62 -22 178 -136 184 -183 2 -8 8 -18 14 -22 6 -4
12 -21 12 -38 1 -18 4 -32 7 -32 9 0 11 -67 5 -136 l-5 -60 -62 -31 c-198 -98
-297 -246 -276 -411 3 -24 35 -55 98 -95 26 -17 38 -35 51 -77 15 -49 16 -56
2 -66 -8 -6 -12 -16 -8 -22 3 -6 2 -13 -4 -17 -6 -4 -8 -10 -5 -15 3 -5 1 -11
-5 -15 -6 -4 -8 -11 -5 -16 4 -5 1 -9 -5 -9 -6 0 -9 -4 -6 -8 3 -5 -6 -16 -20
-26 -24 -18 -33 -46 -15 -46 5 0 4 -15 -2 -35 -8 -27 -13 -32 -24 -24 -8 7
-13 8 -13 1 0 -5 7 -13 16 -16 15 -6 14 -9 -5 -25 -11 -10 -18 -21 -15 -24 4
-3 3 -14 -1 -24 -4 -10 -9 -29 -10 -43 -1 -14 -7 -35 -13 -46 -14 -26 -32 -98
-35 -138 -1 -16 -9 -32 -16 -34 -8 -3 -11 0 -8 5 3 5 0 10 -8 10 -20 0 -19
-14 3 -26 16 -10 15 -12 -10 -15 -7 0 -12 -19 -12 -45 -1 -25 -6 -46 -13 -48
-8 -3 -9 -12 -3 -27 4 -12 5 -29 0 -36 -4 -7 -6 -19 -3 -27 4 -9 -3 -13 -22
-13 -38 0 -27 -22 14 -26 18 -2 42 -9 53 -15 24 -13 279 -16 299 -4 6 5 60 9
118 11 116 2 272 10 366 18 33 3 101 8 150 12 50 3 99 8 110 10 79 14 225 20
380 15 l30 -2 -45 -40 c-60 -54 -61 -54 -104 -70 -37 -13 -55 -33 -43 -46 8
-7 117 44 117 55 0 4 15 16 34 26 18 10 40 29 47 43 17 32 39 43 97 50 26 3
65 9 87 14 144 30 180 37 184 33 8 -8 -8 -16 -36 -18 -55 -5 -104 -19 -100
-29 2 -7 25 -10 58 -8 30 2 65 4 79 5 24 1 25 4 25 68 1 39 6 73 13 80 16 16
15 28 -3 28 -10 0 -15 11 -16 33 -2 78 -8 119 -19 132 -6 7 -10 22 -9 32 1 10
-3 31 -9 46 -7 16 -12 34 -12 40 0 7 -9 37 -20 67 -11 30 -20 69 -20 86 0 22
-7 36 -24 47 -12 9 -31 32 -40 51 -9 20 -21 36 -26 36 -6 0 -10 7 -10 15 0 8
-3 15 -7 15 -5 0 -17 19 -28 43 -11 23 -39 61 -63 85 -23 23 -54 61 -68 82
-15 22 -31 40 -35 40 -5 0 -18 14 -28 30 -15 25 -18 49 -16 126 1 57 -3 104
-10 118 -7 12 -10 37 -7 54 6 44 -34 81 -125 116 -40 15 -75 32 -78 36 -3 5
-21 6 -40 3 -44 -7 -54 13 -32 65 9 20 21 69 27 107 6 39 13 81 15 95 2 14 11
42 19 62 9 20 19 63 22 95 4 32 11 63 16 70 5 7 7 17 4 22 -4 5 -2 12 3 15 5
4 13 32 17 64 3 31 11 65 16 76 6 10 12 44 14 75 3 31 9 70 14 86 5 17 11 46
14 65 8 59 13 73 50 142 19 37 38 79 40 92 3 14 8 31 13 38 4 7 9 24 11 38 2
14 11 34 21 45 10 11 21 28 24 37 8 22 104 98 124 98 16 0 123 62 146 84 6 7
26 21 44 31 18 10 38 33 45 49 6 17 19 36 28 43 28 20 64 132 62 193 -1 53 -4
69 -18 117 -5 19 1 25 38 44 34 16 50 33 71 73 15 28 27 57 27 65 0 7 9 26 21
42 11 16 16 29 10 29 -17 0 -13 13 14 44 14 16 25 40 25 53 0 33 -27 83 -45
83 -12 0 -35 55 -35 85 0 6 -18 28 -40 50 -21 21 -40 47 -42 58 -5 33 -152 79
-229 72 l-51 -5 6 38 c3 20 8 64 12 97 4 33 11 63 16 66 5 3 11 26 12 50 4 50
15 99 26 114 4 6 10 19 14 30 3 11 40 55 81 98 43 44 76 87 77 100 1 12 2 29
3 37 0 8 4 20 8 26 9 15 -18 69 -58 116 -25 30 -32 48 -34 90 -4 81 -3 119 3
168 3 25 8 70 11 100 3 30 8 71 11 90 15 87 25 171 30 241 5 72 3 78 -21 108
-27 31 -76 43 -90 21 -4 -6 -10 -8 -15 -5 -21 13 -80 -27 -144 -99 -60 -66
-104 -95 -107 -68 -4 55 -12 99 -21 115 -5 10 -7 21 -4 24 7 8 -57 58 -94 73
-18 7 -44 10 -66 6 -32 -7 -38 -14 -68 -75 -48 -100 -85 -141 -129 -141 -14 0
-39 74 -39 118 0 12 -4 22 -10 22 -5 0 -8 8 -7 18 3 28 -11 50 -47 72 -46 26
-58 25 -92 -8z m79 -29 c33 -19 35 -24 44 -108 9 -74 29 -125 50 -125 36 0
135 57 135 78 0 6 6 17 13 24 7 7 25 39 40 71 30 62 32 63 74 45 15 -6 34 -12
42 -14 27 -5 51 -70 51 -140 0 -58 18 -79 64 -71 28 5 52 22 114 86 63 65 87
83 131 97 l54 17 18 -24 c11 -15 16 -34 13 -54 -3 -16 -6 -46 -8 -66 -2 -20
-6 -41 -9 -45 -4 -8 -16 -93 -22 -164 -1 -14 -6 -56 -10 -95 -11 -104 -12
-274 -1 -320 5 -22 21 -56 36 -75 73 -94 69 -120 -37 -227 -107 -107 -115
-123 -130 -255 -3 -32 -10 -58 -14 -58 -10 0 -17 -43 -24 -148 -3 -46 -9 -91
-14 -100 -4 -9 -11 -41 -14 -71 -4 -29 -11 -58 -16 -65 -5 -6 -13 -25 -16 -41
-4 -17 -9 -39 -11 -50 -3 -11 -7 -38 -10 -60 -14 -111 -24 -175 -30 -189 -4
-11 -1 -16 10 -16 9 0 16 -4 16 -9 0 -5 9 -12 19 -16 20 -6 31 -8 116 -24 28
-5 61 -14 75 -19 36 -15 90 -68 90 -89 0 -10 7 -27 15 -37 21 -28 18 -100 -6
-170 -26 -73 -83 -156 -107 -156 -6 0 -28 -15 -51 -34 -22 -19 -62 -44 -88
-57 -99 -48 -164 -109 -197 -186 -11 -24 -23 -43 -27 -43 -4 0 -6 -10 -4 -21
2 -12 -11 -52 -30 -88 -19 -37 -35 -74 -35 -83 0 -8 -9 -27 -20 -41 -11 -14
-20 -29 -19 -34 1 -4 0 -15 -4 -23 -7 -20 -19 -88 -21 -125 -1 -16 -5 -43 -9
-60 -4 -16 -9 -44 -11 -62 -3 -18 -7 -37 -10 -42 -4 -5 -15 -63 -26 -128 -11
-65 -23 -125 -27 -133 -10 -23 -34 -123 -34 -143 0 -9 -3 -16 -7 -13 -4 2 -8
-8 -9 -22 -5 -65 -15 -119 -28 -147 -10 -24 -22 -74 -28 -122 0 -5 -7 -14 -14
-21 -7 -7 -13 -21 -13 -30 0 -9 -14 -33 -31 -52 -16 -19 -37 -47 -47 -62 -10
-17 -25 -28 -38 -28 -12 0 -24 -6 -27 -14 -14 -36 -297 -38 -352 -2 -12 8 -27
34 -35 57 -8 24 -24 67 -36 95 -13 29 -20 54 -17 58 3 3 1 12 -5 19 -8 10 -8
23 0 49 6 20 7 45 3 55 -4 10 -8 34 -10 53 -7 85 -20 129 -54 185 -20 33 -45
64 -56 70 -11 5 -37 27 -57 48 -33 32 -54 42 -80 38 -5 0 -8 3 -8 8 0 12 -113
39 -200 46 -93 8 -207 33 -238 52 -26 16 -43 53 -36 79 5 17 19 19 163 22 86
1 193 9 237 17 43 8 88 17 99 19 11 2 70 20 130 40 61 20 115 36 122 36 6 0
19 8 29 18 19 19 99 52 127 52 10 0 20 -7 23 -15 4 -8 15 -15 26 -15 15 0 19
6 16 28 -3 24 -11 30 -83 54 -44 14 -86 27 -92 27 -21 2 -15 -27 7 -34 31 -10
24 -23 -20 -35 -24 -6 -40 -17 -40 -25 0 -8 -7 -15 -16 -15 -9 0 -57 -14 -108
-31 -50 -17 -109 -34 -131 -39 -22 -5 -69 -15 -105 -23 -50 -12 -126 -14 -325
-12 -143 1 -273 5 -290 7 -48 8 -182 68 -204 92 -17 18 -19 28 -12 54 6 18 24
44 41 58 47 40 114 133 134 188 11 27 19 78 20 115 l1 66 195 3 c241 3 272 7
283 37 11 27 -19 37 -60 19 -31 -13 -73 -16 -223 -16 -170 0 -191 2 -256 25
-74 25 -133 74 -134 110 0 9 -4 17 -9 17 -5 0 -11 8 -13 18 -5 25 38 61 81 67
108 16 180 47 173 75 -1 7 3 10 10 7 7 -2 43 7 80 20 l66 25 79 -22 c62 -17
103 -22 202 -21 68 1 128 4 134 8 7 4 36 11 67 15 30 5 71 11 90 15 53 8 110
54 147 117 7 12 12 44 13 73 0 28 5 55 10 58 7 4 8 11 1 18 -9 12 -27 137 -24
167 1 8 -4 43 -11 78 -8 34 -10 62 -5 62 29 0 -23 66 -85 108 -42 29 -147 81
-176 87 -8 2 -45 13 -81 24 -73 23 -109 21 -171 -10 -21 -11 -42 -19 -49 -19
-11 0 -67 -23 -106 -43 -12 -7 -54 -41 -94 -76 -60 -54 -74 -63 -88 -52 -43
31 -125 61 -169 61 -45 0 -133 -21 -156 -38 -42 -30 -114 -35 -117 -8 -8 58
-6 87 8 126 18 48 31 64 76 93 29 18 29 19 21 95 -4 42 -6 93 -5 112 8 109 7
156 -1 167 -5 6 -5 13 -1 16 4 3 7 31 6 64 -2 32 -4 123 -6 203 -2 80 -9 156
-14 170 -12 27 -37 93 -48 125 -4 11 -9 52 -10 90 -2 39 -5 84 -8 100 -3 17
-9 93 -12 171 -6 126 -5 142 12 162 17 21 20 21 58 7 22 -8 47 -14 56 -15 9 0
24 -9 34 -20 27 -30 80 -53 105 -45 25 8 71 49 74 67 2 7 11 31 21 53 9 22 18
45 19 50 3 21 18 35 36 35 25 0 60 -46 60 -80 0 -16 7 -30 15 -34 8 -3 15 -11
15 -17 0 -23 65 -108 82 -109 40 0 69 20 142 100 32 34 86 133 86 156 0 42 44
-32 57 -96 3 -16 17 -43 32 -61 l27 -32 54 18 c38 13 65 30 90 59 117 134 121
138 143 119 10 -10 22 -16 25 -15 6 4 22 -23 51 -90 16 -37 26 -48 44 -48 34
0 43 10 77 80 44 92 62 122 85 142 41 36 105 11 105 -41 0 -14 7 -37 15 -51 8
-14 19 -37 26 -53 15 -36 42 -50 82 -42 44 10 97 67 97 105 0 17 -1 31 -2 33
-2 1 7 13 20 27 12 13 22 27 22 31 0 4 8 10 18 12 9 3 19 5 20 6 2 0 17 -7 33
-16z m675 -1655 c4 -7 4 -10 -1 -6 -4 4 -14 3 -22 -3 -8 -8 -13 -8 -13 -1 0 6
6 13 13 15 6 3 13 6 14 6 1 1 5 -5 9 -11z m249 -106 c-3 -3 -11 0 -18 7 -9 10
-8 11 6 5 10 -3 15 -9 12 -12z m-1930 -25 c11 -7 20 -19 20 -27 0 -11 12 -15
46 -15 28 -1 60 -9 83 -23 20 -12 42 -22 48 -22 17 0 87 -60 93 -81 4 -10 10
-17 14 -15 4 3 7 -3 8 -12 7 -88 16 -170 20 -182 4 -8 5 -22 4 -32 -1 -9 2
-19 7 -22 13 -8 4 -141 -12 -180 -8 -19 -33 -48 -55 -64 -98 -71 -414 -84
-553 -22 -51 22 -117 89 -137 138 -7 17 -17 32 -21 32 -17 0 -32 103 -26 173
10 102 34 164 76 196 39 29 90 82 90 93 0 12 89 50 100 43 6 -4 13 1 16 10 5
12 18 14 68 10 41 -3 56 -2 46 5 -23 15 40 12 65 -3z m-560 -169 c78 -26 78
-26 70 -98 -4 -36 -8 -99 -9 -140 -1 -66 3 -82 32 -137 17 -34 32 -69 32 -78
0 -8 4 -15 10 -15 5 0 28 -18 52 -40 41 -38 41 -40 13 -30 -16 6 -35 16 -42
22 -12 10 -18 1 -15 -23 1 -4 -27 -21 -61 -39 -34 -19 -64 -36 -67 -40 -14
-19 -46 -28 -64 -18 -13 7 -25 7 -40 -1 -28 -14 -96 -21 -96 -9 0 5 -4 6 -10
3 -9 -5 -57 16 -85 38 -5 5 -24 17 -42 27 -18 11 -44 39 -59 62 -14 24 -38 55
-51 70 -14 14 -25 30 -24 35 0 4 -4 23 -10 40 -16 49 -6 176 17 211 30 47 123
120 181 142 95 35 196 42 268 18z m2140 -135 c-5 -10 -7 -22 -6 -26 1 -5 -3
-6 -8 -3 -5 4 -5 16 2 30 13 28 24 27 12 -1z m-1925 -1503 c0 -5 -8 -10 -17
-10 -15 0 -16 2 -3 10 19 12 20 12 20 0z m390 -200 c0 -5 -5 -10 -11 -10 -5 0
-7 5 -4 10 3 6 8 10 11 10 2 0 4 -4 4 -10z m-1045 -650 c-3 -5 -12 -10 -18
-10 -7 0 -6 4 3 10 19 12 23 12 15 0z m2336 -92 c-5 -13 -16 -25 -25 -26 -15
-3 -16 0 -7 16 6 11 7 22 4 26 -3 3 3 6 15 6 18 0 20 -4 13 -22z m48 -49 c-12
-53 -7 -68 44 -122 91 -97 118 -129 114 -134 -5 -4 -28 14 -86 68 -10 8 -23
13 -29 11 -7 -2 -12 0 -12 5 0 5 -10 20 -22 32 -17 19 -21 37 -22 85 -1 33 2
69 6 79 13 30 16 18 7 -24z m-2723 -271 c-25 -42 -28 -92 -6 -115 42 -45 102
-37 152 21 l27 31 38 -41 c21 -23 66 -56 100 -73 60 -30 62 -32 69 -78 5 -27
7 -57 6 -68 -1 -11 -2 -31 -3 -45 0 -14 -7 -49 -15 -79 -12 -43 -13 -59 -3
-83 6 -16 9 -31 6 -34 -6 -6 22 -85 45 -131 6 -12 11 -68 12 -125 l1 -103 -45
-3 c-25 -2 -61 -6 -80 -11 -19 -4 -62 -7 -95 -6 -52 0 -61 3 -71 23 -6 13 -17
29 -23 35 -6 6 -11 20 -11 31 0 23 -36 103 -58 128 -8 10 -30 20 -48 24 -31 6
-50 34 -23 34 8 0 7 6 -2 17 -10 11 -10 14 -1 9 7 -4 12 -2 12 8 0 8 9 21 20
29 12 8 29 31 39 50 17 34 20 35 43 23 17 -9 31 -10 42 -4 22 13 8 37 -35 58
l-34 16 3 74 c2 52 8 77 18 83 22 12 17 37 -11 47 -14 5 -25 15 -25 22 0 7
-16 23 -36 36 -38 24 -78 99 -69 125 3 7 7 27 9 43 2 16 4 32 5 36 0 4 13 9
29 11 15 2 28 5 30 6 1 0 -4 -9 -12 -21z m79 8 c11 -7 25 -15 30 -16 32 -8 33
-12 16 -40 -26 -44 -62 -68 -91 -60 -20 5 -26 13 -28 42 -3 38 21 88 42 88 6
0 20 -6 31 -14z m1524 -43 c-15 -17 -32 -2 -23 21 5 13 9 14 20 5 11 -9 12
-15 3 -26z m-1714 17 c24 -9 26 -13 20 -54 -7 -45 8 -88 44 -130 15 -18 15
-19 -9 -12 -66 17 -137 18 -166 3 l-29 -16 60 -1 c66 0 154 -21 189 -43 24
-16 27 -53 11 -143 l-7 -42 -52 14 c-50 13 -150 14 -162 1 -16 -16 7 -37 41
-37 40 0 43 -8 15 -36 -11 -10 -31 -30 -45 -44 -14 -13 -25 -21 -25 -16 0 5
-7 3 -15 -4 -13 -11 -14 -10 -10 2 3 8 -6 25 -20 38 -14 13 -25 30 -25 37 0 8
-11 25 -25 38 -13 14 -22 25 -19 25 2 0 -2 14 -11 30 -24 46 -1 117 46 143 19
11 37 24 40 29 8 13 -1 58 -12 58 -15 0 -10 80 5 86 8 3 17 15 20 27 4 15 20
27 53 38 60 21 57 21 88 9z m3247 -662 c-5 -12 -32 -10 -32 2 0 6 5 10 10 10
6 0 10 6 9 13 -4 34 4 48 10 17 4 -19 5 -38 3 -42z m-852 -158 c0 -14 -15 -19
-29 -10 -17 10 -5 31 14 23 8 -3 15 -9 15 -13z m90 -1 c0 -4 10 -5 23 -2 19 4
19 2 -5 -11 -29 -17 -58 -12 -58 9 0 8 9 13 20 12 11 -1 20 -4 20 -8z m370 -2
c0 -5 7 -3 17 4 14 12 16 12 11 -1 -3 -11 -21 -15 -66 -16 -49 -1 -58 1 -46
10 19 14 84 16 84 3z m-580 -12 c23 -9 28 -14 15 -14 -30 -1 -65 10 -65 20 0
11 7 11 50 -6z m76 -13 c-22 -5 -30 3 -21 18 5 8 11 7 22 -2 15 -12 14 -13 -1
-16z m227 21 c-7 -2 -21 -2 -30 0 -10 3 -4 5 12 5 17 0 24 -2 18 -5z m-758
-33 c-3 -5 -18 -10 -33 -10 -21 0 -24 2 -12 10 20 13 53 13 45 0z"/>
<path d="M4795 5100 c-3 -5 -1 -10 4 -10 6 0 11 5 11 10 0 6 -2 10 -4 10 -3 0
-8 -4 -11 -10z"/>
<path d="M4596 3742 c-3 -5 -31 -14 -63 -21 -66 -15 -103 -35 -103 -56 0 -19
2 -19 45 2 19 9 37 14 40 11 7 -7 -32 -76 -61 -108 -31 -33 -18 -60 20 -42 17
7 31 27 43 62 10 27 21 50 25 50 5 0 8 6 8 13 0 32 37 49 101 45 74 -4 89 13
33 37 -40 16 -80 20 -88 7z"/>
<path d="M3025 3936 c-18 -13 -18 -15 -2 -40 19 -29 19 -29 41 -20 19 7 21 45
4 62 -15 15 -20 15 -43 -2z"/>
<path d="M2285 3860 c-8 -25 1 -40 24 -40 26 0 34 38 11 50 -25 14 -28 13 -35
-10z"/>
<path d="M4908 5242 c-4 -26 -2 -28 13 -19 18 11 19 39 2 44 -6 2 -13 -9 -15
-25z"/>
</g>
</svg>
